HIERARCHY
ROOT Hips
{
	OFFSET 0.000000 0.000000 0.000000
	CHANNELS 6 Xposition Yposition Zposition Zrotation Yrotation Xrotation 
	JOINT LHipJoint
	{
		OFFSET 0.000000 0.000000 0.000000
		CHANNELS 3 Zrotation Yrotation Xrotation
		JOINT LeftUpLeg
		{
			OFFSET 1.363060 -1.794630 0.839290
			CHANNELS 3 Zrotation Yrotation Xrotation
			JOINT LeftLeg
			{
				OFFSET 2.448110 -6.726130 0.000000
				CHANNELS 3 Zrotation Yrotation Xrotation
				JOINT LeftFoot
				{
					OFFSET 2.562200 -7.039590 0.000000
					CHANNELS 3 Zrotation Yrotation Xrotation
					JOINT LeftToeBase
					{
						OFFSET 0.157640 -0.433110 2.322550
						CHANNELS 3 Zrotation Yrotation Xrotation
						End Site
						{
							OFFSET 0.000000 0.000000 0.000000
						}
					}
				}
			}
		}
	}
	JOINT RHipJoint
	{
		OFFSET 0.000000 0.000000 0.000000
		CHANNELS 3 Zrotation Yrotation Xrotation
		JOINT RightUpLeg
		{
			OFFSET -1.305520 -1.794630 0.839290
			CHANNELS 3 Zrotation Yrotation Xrotation
			JOINT RightLeg
			{
				OFFSET -2.542530 -6.985550 0.000000
				CHANNELS 3 Zrotation Yrotation Xrotation
				JOINT RightFoot
				{
					OFFSET -2.568260 -7.056230 0.000000
					CHANNELS 3 Zrotation Yrotation Xrotation
					JOINT RightToeBase
					{
						OFFSET -0.164730 -0.452590 2.363150
						CHANNELS 3 Zrotation Yrotation Xrotation
						End Site
						{
							OFFSET 0.000000 0.000000 0.000000
						}
					}
				}
			}
		}
	}
}
MOTION
Frames: 16
Frame Time: 0.008333
2.151878 16.006448 0.572830 125.898905 -79.107242 -80.686520 -10.191378 -1.246617 -1.917451 -19.394322 -5.553304 -68.783196 -1.006923 4.741563 65.394889 4.442737 16.953167 -25.778959 -5.031500 -0.000000 -8.154800 7.794556 1.385951 -3.970532 15.155815 -9.788017 -71.509081 3.173340 -6.434663 60.048482 0.868214 11.930765 -20.772636 -1.614200 0.000000 -38.615200
2.021120 16.031071 0.553891 125.711306 -79.150732 -80.465125 -9.990736 -1.277554 -1.705122 -19.344383 -6.279119 -70.178676 -1.087846 4.725507 64.536948 4.491116 16.736700 -25.889115 -4.977600 0.000000 -7.971700 7.845040 1.386891 -4.114563 15.055136 -10.143593 -70.657950 3.239843 -6.378045 59.589745 0.896391 12.107897 -20.691226 -1.652900 -0.000000 -39.491099
1.888116 16.053522 0.535617 125.601506 -79.202616 -80.350746 -9.794019 -1.284546 -1.496724 -19.336398 -6.939731 -71.524194 -1.184884 4.706380 63.581121 4.535243 16.496245 -25.972062 -4.909500 -0.000000 -7.783000 7.898554 1.387840 -4.251855 14.930776 -10.475823 -69.767794 3.296100 -6.316562 59.154755 0.921590 12.264295 -20.599006 -1.686900 -0.000000 -40.485000
1.752741 16.073778 0.518004 125.564669 -79.262967 -80.336976 -9.602678 -1.267223 -1.291520 -19.375161 -7.538788 -72.816004 -1.300243 4.684066 62.524902 4.566573 16.195524 -26.013936 -4.814700 -0.000000 -7.611200 7.955527 1.388918 -4.381399 14.779186 -10.782105 -68.841237 3.341673 -6.250666 58.746262 0.944420 12.403419 -20.495544 -1.717000 -0.000000 -41.563900
1.614811 16.091787 0.501022 125.592733 -79.331424 -80.414321 -9.417915 -1.225238 -1.088706 -19.464911 -8.080868 -74.045741 -1.436073 4.657585 61.362010 4.576768 15.804165 -25.994963 -4.680700 0.000000 -7.547500 8.016694 1.390266 -4.502927 14.597849 -11.062339 -67.878489 3.376780 -6.180707 58.364088 0.965462 12.529205 -20.381313 -1.744000 0.000000 -42.722900
1.474354 16.107625 0.484658 125.672411 -79.407622 -80.572205 -9.240661 -1.158920 -0.888347 -19.610374 -8.570245 -75.201232 -1.594706 4.625504 60.085011 4.559440 15.301741 -25.902571 -4.501200 -0.000001 -7.624801 8.082320 1.392041 -4.617810 14.386079 -11.319774 -66.876604 3.402613 -6.107070 58.006684 0.985043 12.647296 -20.263181 -1.769899 0.000000 -43.898500
1.331194 16.121311 0.468865 125.790481 -79.491612 -80.798227 -9.071701 -1.069051 -0.690689 -19.815531 -9.010241 -76.266397 -1.778347 4.585468 58.683722 4.510510 14.679868 -25.727475 -4.275000 0.000000 -7.940900 8.152718 1.393903 -4.727838 14.144614 -11.558844 -65.829237 3.420909 -6.029702 57.668475 1.003118 12.761078 -20.148109 -1.796699 0.000000 -45.090300
1.185234 16.132879 0.453606 125.933028 -79.583293 -81.082190 -8.911241 -0.956916 -0.496407 -20.085251 -9.404111 -77.222887 -1.988618 4.534449 57.147010 4.428457 13.942960 -25.462701 -4.005700 0.000000 -8.589200 8.228108 1.395519 -4.835469 13.875194 -11.785496 -64.728026 3.433632 -5.948411 57.342180 1.019305 12.872055 -20.044066 -1.825801 0.000000 -46.287201
1.036343 16.142490 0.438896 126.089373 -79.683922 -81.418311 -8.759445 -0.825186 -0.306638 -20.421666 -9.752592 -78.049280 -2.227371 4.468553 55.463993 4.315804 13.106195 -25.124764 -3.706700 0.000001 -9.494101 8.307676 1.395435 -4.944394 13.584013 -12.007914 -63.560232 3.444295 -5.862628 57.017323 1.032811 12.983652 -19.968309 -1.860700 -0.000000 -47.376201
0.884494 16.150193 0.424663 126.249995 -79.793929 -81.802271 -8.615736 -0.676769 -0.122503 -20.827598 -10.056140 -78.727547 -2.494648 4.383501 53.623985 4.176269 12.195143 -24.714130 -3.388400 -0.000000 -10.744100 8.391196 1.392588 -5.057309 13.275834 -12.231728 -62.315428 3.454804 -5.771702 56.683202 1.042740 13.092200 -19.926303 -1.901800 0.000000 -48.377201
0.729374 16.155977 0.410930 126.415056 -79.914362 -82.235306 -8.479495 -0.515181 0.055255 -21.303644 -10.313535 -79.242743 -2.789828 4.274636 51.619441 4.016012 11.240992 -24.241839 -3.064200 -0.000000 -12.329600 8.478197 1.385160 -5.176397 12.957243 -12.462171 -60.983871 3.467272 -5.674839 56.328106 1.048119 13.193194 -19.923195 -1.949000 0.000001 -49.290400
0.570946 16.159971 0.397724 126.589240 -80.047267 -82.726821 -8.349948 -0.345115 0.225594 -21.847385 -10.521683 -79.583683 -3.110776 4.137066 49.445344 3.842365 10.279129 -23.717470 -2.746000 -0.000000 -14.235400 8.567689 1.371176 -5.303757 12.636052 -12.702898 -59.556519 3.483269 -5.571238 55.940836 1.048221 13.281927 -19.960481 -2.001600 -0.000000 -50.106200
0.408885 16.161923 0.384938 126.784477 -80.193373 -83.283575 -8.226041 -0.170038 0.390031 -22.456455 -10.679673 -79.754830 -3.453925 3.966986 47.102965 3.661834 9.343154 -23.137261 -2.440100 0.000000 -16.484400 8.659598 1.348709 -5.436932 12.318351 -12.949450 -58.037247 3.502675 -5.460388 55.515303 1.042110 13.348189 -20.034085 -2.056500 0.000000 -50.861600
0.243063 16.161947 0.372797 127.023916 -80.355567 -83.929486 -8.107422 0.004054 0.547337 -23.122149 -10.781443 -79.756703 -3.814767 3.760244 44.599306 3.482491 8.465336 -22.519205 -2.156000 0.000000 -18.904201 8.752550 1.315473 -5.577028 12.012829 -13.203943 -56.421535 3.526139 -5.341747 55.041765 1.030045 13.389348 -20.135086 -2.111300 0.000000 -51.568099
0.073219 16.159956 0.361371 127.338096 -80.535811 -84.689934 -7.993637 0.172166 0.697900 -23.834746 -10.823299 -79.603140 -4.187149 3.514275 41.949043 3.310204 7.671252 -21.867396 -1.896900 -0.000001 -21.379700 8.846088 1.269837 -5.721545 11.724844 -13.462202 -54.715385 3.552841 -5.215238 54.516408 1.012462 13.401509 -20.250875 -2.162700 -0.000000 -52.257401
-0.101058 16.155608 0.350548 127.749214 -80.734610 -85.571501 -7.884471 0.331342 0.846330 -24.584647 -10.809544 -79.326417 -4.565040 3.228504 39.172669 3.148132 6.974410 -21.178733 -1.661300 -0.000000 -23.796300 8.939924 1.209910 -5.862469 11.459914 -13.709791 -52.942085 3.580674 -5.081112 53.941384 0.989504 13.376857 -20.368104 -2.205500 0.000000 -52.967500
